<svg xmlns="http://www.w3.org/2000/svg" enable-background="new 0 0 512 512" viewBox="0 0 512 512" id="seals">
  <g>
    <g>
      <g>
        <g>
          <path fill="#fff" d="M456.08,312.64l-5.84-116.87C445.06,92.265,359.636,11,256,11
					C152.37,11,66.94,92.26,61.76,195.77l-5.84,116.87C52.68,377.641,37.439,441.521,11,501h490
					C474.56,441.51,459.33,377.65,456.08,312.64z"></path>
          <ellipse cx="341" cy="146" fill="#cddcf9" rx="30" ry="35"></ellipse>
          <path fill="#fff" d="M322.845 342.375L301 358.37V441c22.563-22.749 38.326-54.196 43.69-89.84L322.845 342.375zM188.313 349.938l-21.002 1.223c5.362 35.634 21.121 67.084 43.69 89.84v-82.63L188.313 349.938z"></path>
          <ellipse cx="171" cy="146" fill="#cddcf9" rx="30" ry="35"></ellipse>
          <path fill="#cddcf9" d="M374.56,276.4c-8.05-26.29-32.51-45.4-61.44-45.4h-6.4L256,252l-50.72-21h-6.4
					c-28.93,0-53.39,19.11-61.44,45.4c-8.825,28.683,3.472,59.739,29.87,74.76c23.772,13.507,53.305,10.383,73.74-7.42
					c8.61-7.49,21.29-7.49,29.9,0c20.47,17.834,50.002,20.908,73.74,7.42C371.238,336.053,383.33,304.904,374.56,276.4z"></path>
          <path fill="#fff" d="M205.28,231h101.44c-6.5,21.86-26.75,37.8-50.72,37.8S211.78,252.86,205.28,231z
					"></path>
        </g>
        <g>
          <path fill="#487fe9" d="M415.008,331.838c-10.177-4.452-20.896-8.339-31.985-11.611
					c3.422-9.533,4.913-19.709,4.156-30.328c6.916,1.964,13.696,4.198,20.266,6.697c5.161,1.963,10.938-0.628,12.902-5.791
					c1.964-5.162-0.629-10.939-5.791-12.902c-10.408-3.958-21.283-7.313-32.395-10.003c-10.857-27.284-37.418-46.9-69.041-46.9
					c-6.725-0.001-107.894,0-114.24,0c-31.638,0-58.196,19.636-69.042,46.901c-11.114,2.69-21.987,6.044-32.393,10.002
					c-5.162,1.964-7.755,7.74-5.791,12.902c1.97,5.18,7.758,7.749,12.902,5.791c6.57-2.499,13.35-4.733,20.266-6.697
					c-0.744,10.43,0.672,20.622,4.156,30.328c-11.09,3.271-21.809,7.159-31.985,11.61c-5.06,2.214-7.367,8.11-5.154,13.17
					c2.218,5.069,8.118,7.364,13.17,5.154c10.574-4.626,21.806-8.591,33.463-11.842c5.345,7.466,12.029,13.902,19.721,18.971
					c5.95,33.76,21.179,66.021,45.708,90.751c1.915,1.932,4.485,2.958,7.102,2.958c5.482,0,9.998-4.448,9.998-10v-74.85
					c9.758-3.043,18.842-8.095,26.613-14.865c4.859-4.228,11.914-4.227,16.768-0.005c7.779,6.777,16.869,11.831,26.619,14.871V441
					c0,4.052,2.445,7.703,6.192,9.246c3.737,1.541,8.05,0.678,10.907-2.204c24.528-24.729,39.759-56.988,45.708-90.751
					c7.691-5.067,14.376-11.505,19.721-18.972c11.656,3.251,22.888,7.216,33.463,11.843c5.062,2.212,10.955-0.093,13.17-5.154
					C422.375,339.948,420.067,334.052,415.008,331.838z M290.764,241c-7.935,10.897-20.816,17.8-34.764,17.8
					s-26.829-6.903-34.764-17.8H290.764z M201,412.86c-8.723-13.229-15.651-28.497-20.156-45.595
					c6.872,1.733,13.411,2.384,20.156,2.213V412.86z M311,412.859v-43.382c6.72,0.195,13.401-0.493,20.153-2.197
					C326.646,384.376,319.724,399.631,311,412.859z M363.535,315.207c-10.096-2.244-20.59-4.051-31.311-5.372
					c-5.493-0.685-10.474,3.22-11.148,8.701c-0.676,5.482,3.22,10.473,8.701,11.148c7.485,0.923,14.841,2.098,22.01,3.499
					c-20.416,20.792-52.876,21.656-74.273,3.012c-12.467-10.844-30.561-10.843-43.033,0.005
					c-21.257,18.523-53.719,17.905-74.267-3.017c7.169-1.401,14.525-2.576,22.01-3.499c5.481-0.676,9.377-5.667,8.701-11.148
					c-0.676-5.481-5.678-9.371-11.148-8.701c-10.722,1.322-21.216,3.129-31.311,5.373c-3.914-9.821-4.788-20.276-2.85-30.294
					c11.531-2.273,23.641-3.883,36.103-4.779c5.509-0.396,9.653-5.184,9.257-10.692c-0.396-5.51-5.188-9.652-10.692-9.257
					c-8.521,0.613-16.895,1.55-25.067,2.777c9.884-13.44,25.627-21.775,43.102-21.951C208.199,263.59,230.93,278.8,256,278.8
					s47.801-15.21,57.683-37.789c17.472,0.176,33.213,8.509,43.099,21.951c-8.171-1.227-16.544-2.163-25.064-2.776
					c-5.504-0.38-10.295,3.749-10.692,9.257c-0.396,5.509,3.748,10.296,9.257,10.692c12.46,0.897,24.57,2.505,36.103,4.779
					C368.314,294.887,367.466,305.344,363.535,315.207z"></path>
          <path fill="#487fe9" d="M510.138,496.939c-26.042-58.594-40.869-120.77-44.07-184.798l-5.84-116.871
					c-2.634-52.641-25.113-101.63-63.296-137.945C358.742,21.003,308.692,1,256,1C146.932,1,57.225,86.333,51.773,195.27
					l-5.84,116.871c-1.582,31.731-6.124,63.502-13.5,94.428c-7.374,30.92-17.66,61.324-30.57,90.369
					C-1.074,503.544,3.771,511,11,511h490C508.228,511,513.074,503.546,510.138,496.939z M26.149,491
					c10.622-25.861,19.261-52.634,25.738-79.79c7.66-32.12,12.377-65.116,14.019-98.071l5.84-116.869C76.666,97.987,157.6,21,256,21
					c47.538,0,92.693,18.047,127.148,50.816c34.447,32.763,54.728,76.961,57.104,124.452l5.84,116.87
					c3.069,61.4,16.433,121.157,39.754,177.861H26.149z"></path>
          <path fill="#487fe9" d="M341 191c22.056 0 40-20.186 40-45s-17.944-45-40-45-40 20.187-40 45S318.944 191 341 191zM341 121c11.028 0 20 11.215 20 25s-8.972 25-20 25-20-11.215-20-25S329.972 121 341 121zM171 191c22.056 0 40-20.186 40-45s-17.944-45-40-45-40 20.187-40 45S148.944 191 171 191zM171 121c11.028 0 20 11.215 20 25s-8.972 25-20 25-20-11.215-20-25S159.972 121 171 121z"></path>
        </g>
      </g>
    </g>
  </g>
</svg>
